<svg version="1.2" xmlns="http://www.w3.org/2000/svg" viewBox="0 0 387 387" width="387" height="387">
	<title>latostadora-svg</title>
	<style>
		.s0 { opacity: 1;fill: currentColor } 
	</style>
	<g id="Layer">
		<path id="Path 0" fill-rule="evenodd" class="s0" d="m190 23.1c3.6 0 12.8 0.4 20.5 0.9 7.7 0.6 19.5 2.2 26.3 3.5 6.7 1.4 17 4.1 22.9 6 6 1.9 16.7 6.3 23.8 9.9 7.1 3.5 17 9.3 22 12.8 4.9 3.4 13.3 10.6 18.5 15.8 5.2 5.2 12.3 13.5 15.7 18.5 3.4 4.9 8.6 14.2 11.7 20.5 3 6.3 6.7 15.1 8.1 19.5 1.4 4.4 3.6 13.1 5 19.2 2.3 10.5 2.4 11.3 0.8 11.3-1 0-4.7-1.1-8.3-2.6-3.6-1.4-11.2-3.7-17-5.2-9.3-2.2-12.6-2.5-28.5-2.5-12.4 0-21.3 0.5-28.5 1.7-5.8 1-12.4 2.1-18.9 3.1l-2.1-5c-1.2-2.8-3.8-8.4-5.7-12.5-2.9-6-5.6-9.5-13.7-17.6-6.6-6.5-12.2-11.1-16.1-13.1-3.3-1.8-8.9-4-12.5-4.9-4.8-1.3-10.6-1.7-22.5-1.7-12.4 0-17.3 0.4-22 1.7-3.3 1-8.7 3.2-12 4.8-3.3 1.7-8.4 4.9-11.3 7.2-2.9 2.2-7.4 6.8-9.9 10.1-2.5 3.3-5.6 8.1-6.9 10.7-1.3 2.7-3.5 8.5-4.8 13-1.3 4.6-2.9 12.6-3.5 17.8-0.6 5.2-1.5 14-2.1 19.5-0.6 5.5-1.7 11-2.5 12.2-0.9 1.4-3 2.6-5.2 3-2.1 0.5-14.6 0.8-27.8 0.8-19.4 0-25.6-0.4-32.5-1.8-4.7-1-11.6-2.8-15.5-3.9-3.8-1.1-9.1-3.1-11.7-4.4-3.9-1.9-5-3.1-5.9-6.2-0.9-2.7-0.9-6.7 0-15.7 0.6-6.6 2.3-17.2 3.7-23.5 1.5-6.3 4-15.3 5.6-20 1.7-4.7 5.1-12.5 7.5-17.5 2.5-5 7.3-13 10.7-18 3.3-5 11.2-14.2 17.6-20.6 7.9-8.1 14.6-13.7 21.5-18.2 5.5-3.6 13.6-8.2 18-10.3 4.4-2 13.2-5.4 19.5-7.5 6.3-2.1 16.4-4.7 22.5-5.9 6.1-1.1 17.3-2.6 25-3.4 7.7-0.8 16.9-1.4 20.5-1.5zm122 145.3c20.3 0.3 24.6 0.7 31.5 2.5 4.4 1.2 11.7 4 24.5 10.1l0.6 6.7c0.4 3.8 0.4 11.5 0 17.3-0.4 5.8-1.2 14.8-1.7 20-0.6 5.2-1.7 12.9-2.5 17-0.9 4.1-3.1 12.2-5 18-2 5.8-6 15.2-8.9 21-3 5.8-8.7 15-12.8 20.5-4.1 5.5-11.5 13.9-16.3 18.8-4.9 4.8-11.6 10.7-14.9 13.2-3.3 2.5-11.9 7.4-19 10.9-7.1 3.6-18.6 8.2-25.5 10.4-6.9 2.2-17 5.1-22.5 6.3-9.5 2.3-11.7 2.4-82 2.4l-13.5-3.7c-7.4-2-17.5-5.1-22.5-6.9-4.9-1.7-14.2-5.7-20.5-8.9-6.3-3.2-15.1-8.4-19.5-11.5-4.4-3.2-11-8.5-14.6-11.9-3.7-3.3-9.1-9-12-12.6-3-3.6-7.5-9.9-10.1-14-2.6-4.1-6.7-11.8-9.2-17-2.5-5.2-6.1-14.2-8-20-1.9-5.8-4.9-17.3-6.5-25.5-1.7-8.3-3.1-16.7-3.1-18.8 0-3.6 0.1-3.7 3.3-3.1 1.7 0.3 10 2.2 18.2 4.1 8.3 1.9 20.2 4.1 26.5 4.8 6.3 0.8 16 1.4 21.5 1.4 5.5 0.1 14.7-0.6 20.5-1.3 5.8-0.8 15.2-2.6 21-4.1 5.8-1.4 14.3-3.8 19-5.1 4.7-1.4 11.9-3.6 16-4.9 4.1-1.3 23-7.3 42-13.4 19-6 40.1-12.6 47-14.6 6.9-2 17.7-4.7 24-6 10.6-2.2 13.3-2.4 35-2.1zm-92 45.6c-13.5 4.3-36.6 11.7-51.5 16.4-14.8 4.6-29.7 9.4-33 10.5-3.3 1.1-6.4 2.5-7 3.1q-1 1 0.7 5.2c1 2.4 3.5 7 5.7 10.3 2.1 3.3 6.3 8.4 9.2 11.3 3.4 3.3 8.4 6.8 13.4 9.3 4.4 2.2 11.2 4.6 15 5.4 3.8 0.8 11.1 1.8 16 2.1 5.5 0.4 12.3 0.2 17.5-0.6 4.7-0.6 11.7-2.3 15.5-3.7 3.8-1.4 9.4-4.2 12.4-6.2 3-2 7.7-6.1 10.4-9.1 2.8-3 6.5-7.8 8.2-10.5 1.8-2.8 4.4-7.7 5.8-11 1.4-3.3 3.3-8.9 4.2-12.5 0.9-3.6 2.3-11.7 3.1-18 0.7-6.3 1.4-12.5 1.4-13.8 0-1.2-0.6-2.2-1.2-2.1-0.7 0-5.8 1.4-11.3 3-5.5 1.6-21 6.5-34.5 10.9z"/>
	</g>
</svg>