<?xml version="1.0" encoding="UTF-8" standalone="no"?>
<svg
   version="1.1"
   width="387px"
   height="387px"
   style="shape-rendering:geometricPrecision; text-rendering:geometricPrecision; image-rendering:optimizeQuality; fill-rule:evenodd; clip-rule:evenodd"
   id="svg224"
   sodipodi:docname="latostadora.svg"
   inkscape:version="1.2 (dc2aeda, 2022-05-15)"
   xmlns:inkscape="http://www.inkscape.org/namespaces/inkscape"
   xmlns:sodipodi="http://sodipodi.sourceforge.net/DTD/sodipodi-0.dtd"
   xmlns="http://www.w3.org/2000/svg"
   xmlns:svg="http://www.w3.org/2000/svg">
  <defs
     id="defs228" />
  <sodipodi:namedview
     id="namedview226"
     pagecolor="#505050"
     bordercolor="#eeeeee"
     borderopacity="1"
     inkscape:showpageshadow="0"
     inkscape:pageopacity="0"
     inkscape:pagecheckerboard="0"
     inkscape:deskcolor="#505050"
     showgrid="false"
     inkscape:zoom="2.6537468"
     inkscape:cx="44.088607"
     inkscape:cy="195.0073"
     inkscape:window-width="2183"
     inkscape:window-height="1205"
     inkscape:window-x="0"
     inkscape:window-y="25"
     inkscape:window-maximized="0"
     inkscape:current-layer="svg224" />
  <g
     id="g134"
     style="display:inline;fill:#ffffff">
    <path
       style="opacity:0.993;fill:#ffffff"
       fill="#010101"
       d="m 170.5,22.5 c 48.362,-4.5658 93.029,5.9342 134,31.5 36.254,26.6549 56.921,62.488 62,107.5 -9.197,-3.12 -18.53,-5.953 -28,-8.5 -24.325,-4.084 -48.658,-3.251 -73,2.5 -2.08,-0.186 -3.58,-1.186 -4.5,-3 -13.293,-39.578 -40.793,-56.7446 -82.5,-51.5 -30.43,4.76 -48.93,22.26 -55.5,52.5 -2.058,12.251 -3.392,24.584 -4,37 -0.147,3.071 -0.98,5.904 -2.5,8.5 -5.138,1.916 -10.471,2.916 -16,3 -27.6129,2.882 -54.2795,-0.784 -80,-11 C 19,190.167 17.8333,189 17,187.5 15.1857,131.307 36.3524,86.1401 80.5,52 c 27.518,-17.543 57.518,-27.3764 90,-29.5 z"
       id="path132" />
  </g>
  <g
     id="g138"
     style="display:inline;fill:#ffffff">
    <path
       style="opacity:0.993;fill:#ffffff"
       fill="#010101"
       d="m 289.5,166.5 c 15.369,-0.359 30.703,0.141 46,1.5 11.708,2.012 22.541,6.178 32.5,12.5 5.504,49.462 -7.163,93.462 -38,132 -16.702,18.606 -36.869,32.106 -60.5,40.5 -62.054,20.759 -122.054,16.092 -180,-14 C 54.1049,316.106 31.6049,283.939 22,242.5 c -2.7008,-11.538 -4.5342,-23.205 -5.5,-35 17.1544,4.331 34.4877,7.831 52,10.5 26.2269,2.255 51.894,-0.745 77,-9 35.605,-11.535 71.272,-22.868 107,-34 12.358,-3.342 24.691,-6.176 37,-8.5 z m -28,34 c 1.333,0 2.667,0 4,0 0,2.333 0,4.667 0,7 -1.077,5.812 -1.743,11.812 -2,18 -0.951,1.419 -1.284,3.085 -1,5 -1.445,3.437 -2.445,7.103 -3,11 -1.431,1.28 -2.098,2.947 -2,5 -1.841,2.349 -3.174,5.015 -4,8 -1.826,1.647 -3.16,3.647 -4,6 -1.762,0.762 -2.762,2.096 -3,4 -3,2.333 -5.667,5 -8,8 -2.249,0.58 -3.915,1.913 -5,4 -0.992,-0.172 -1.658,0.162 -2,1 -1.527,-0.073 -2.527,0.594 -3,2 -2.053,-0.098 -3.72,0.569 -5,2 -21.784,6.937 -43.451,6.603 -65,-1 -1.014,-1.174 -2.347,-1.84 -4,-2 -0.473,-1.406 -1.473,-2.073 -3,-2 0,-0.667 -0.333,-1 -1,-1 -3.974,-3.638 -7.974,-7.305 -12,-11 -0.238,-1.904 -1.238,-3.238 -3,-4 0.172,-0.992 -0.162,-1.658 -1,-2 0.073,-1.527 -0.594,-2.527 -2,-3 -1.097,-3.186 -2.43,-6.186 -4,-9 -0.067,-1.459 0.266,-2.792 1,-4 5.284,-1.095 10.284,-2.761 15,-5 2.652,0.09 4.985,-0.576 7,-2 3.285,-0.428 6.285,-1.428 9,-3 2.652,0.09 4.985,-0.576 7,-2 2.286,-0.095 4.286,-0.762 6,-2 2.286,-0.095 4.286,-0.762 6,-2 3.662,-0.223 6.995,-1.223 10,-3 5.55,-1.296 10.883,-2.963 16,-5 2.286,-0.095 4.286,-0.762 6,-2 16.947,-4.761 33.613,-10.094 50,-16 z"
       id="path136" />
  </g>
</svg>
