<svg version="1.2" xmlns="http://www.w3.org/2000/svg" viewBox="0 0 512 512" width="512" height="512">
	<title>redbubble-3445827-2878753</title>
	<style>
		.s0 { fill: currentColor } 
	</style>
	<path id="Path 0" fill-rule="evenodd" class="s0" d="m255 0.1c11.8-0.1 24 0.3 27 0.9 3 0.5 10 1.7 15.5 2.5 5.5 0.9 15.2 2.9 21.5 4.5 6.3 1.6 16.9 4.8 23.5 7.1 6.6 2.4 19 7.8 27.5 12 8.5 4.3 20.2 10.9 26 14.7 5.8 3.9 15.2 10.8 21 15.5 5.8 4.6 15.9 14 22.5 20.8 6.6 6.8 16.1 17.8 21 24.4 5 6.6 11.6 16.3 14.7 21.5 3.1 5.2 8.4 15.1 11.7 22 3.3 6.9 7.6 17 9.6 22.5 2 5.5 4.7 13.8 6 18.5 1.3 4.7 3 11.7 3.8 15.5 0.9 3.8 2.5 13.4 3.6 21.3 1.5 9.9 2.1 19.4 2.1 31.4 0 9.7-0.7 22.4-1.5 28.8-0.8 6.3-2 14.2-2.6 17.5-0.5 3.3-2.3 11.2-3.9 17.5-1.6 6.3-4.8 16.9-7.1 23.5-2.3 6.6-7.9 19.2-12.3 28-4.5 8.8-11.1 20.5-14.8 26-3.6 5.5-10.4 14.7-15.1 20.5-4.6 5.8-14 15.9-20.8 22.5-6.8 6.6-17.8 16.1-24.4 21-6.6 5-16.3 11.6-21.5 14.7-5.2 3.1-15.6 8.6-23 12.1-7.4 3.6-18.2 8.1-24 10.1-5.8 2.1-15.7 5-22 6.6-6.3 1.6-15.6 3.6-20.5 4.4-4.9 0.8-12.6 2-17 2.6-5.1 0.8-15.7 1.1-29.5 0.8-13.7-0.3-25.3-1.1-32-2.2-5.8-1-14.3-2.6-19-3.6-4.7-1.1-12.6-3.1-17.5-4.5-4.9-1.5-14.2-4.7-20.5-7.1-6.3-2.5-17.3-7.5-24.5-11.3-7.2-3.7-17.5-9.7-23-13.3-5.5-3.7-14.7-10.5-20.5-15.1-5.8-4.7-15.9-14-22.5-20.8-6.6-6.8-16.1-17.8-21-24.4-5-6.6-11.6-16.3-14.7-21.5-3.1-5.2-8.4-15.1-11.7-22-3.3-6.9-7.6-17-9.6-22.5-2-5.5-4.7-13.8-6-18.5-1.3-4.7-3-11.6-3.8-15.5-0.9-3.9-2.5-13.4-3.6-21.2-1.5-10-2.1-19.5-2.1-31.5 0-9.7 0.7-22.4 1.5-28.8 0.8-6.3 2-14.2 2.6-17.5 0.5-3.3 2.3-11.2 3.9-17.5 1.6-6.3 4.8-16.9 7.1-23.5 2.4-6.6 7.8-19 12-27.5 4.3-8.5 11-20.5 15.1-26.5 4-6.1 11.2-15.8 15.9-21.5 4.8-5.8 13.6-15.3 19.5-21.1 6-5.8 14.5-13.4 18.9-17 4.4-3.5 12.9-9.7 19-13.7 6-4 18-10.8 26.5-15.1 8.5-4.2 20.9-9.6 27.5-12 6.6-2.3 17.2-5.5 23.5-7.1 6.3-1.6 16-3.6 21.5-4.5 5.5-0.9 12-2 14.5-2.4 2.5-0.5 14.2-0.9 26-1zm-40 24.9c-6.3 1.1-15.6 3.2-20.5 4.6-4.9 1.3-13.5 4.1-19 6.1-5.5 2-14.5 5.7-20 8.4-5.5 2.6-14.7 7.6-20.5 11.1-5.8 3.5-15 9.7-20.5 13.8-5.5 4.1-16.3 13.7-24.1 21.5-7.7 7.7-17.5 18.7-21.8 24.5-4.3 5.8-10.9 15.7-14.6 22-3.8 6.3-8.5 15.1-10.5 19.5-2.1 4.4-5.2 11.8-7 16.5-1.8 4.7-4.6 13.4-6.3 19.5-1.7 6.1-4 15.9-5.1 22-1.1 6.1-2.5 17.8-3.1 26-0.9 11.2-0.9 18.9 0 30.5 0.6 8.5 2 20.4 3.1 26.5 1.1 6.1 3.4 15.9 5.1 22 1.7 6.1 4.5 14.8 6.3 19.5 1.8 4.7 5.3 12.8 7.8 18 2.5 5.2 7.4 14.2 10.9 20 3.5 5.8 9.7 15 13.8 20.5 4.1 5.5 13.7 16.3 21.5 24 7.7 7.8 18.5 17.4 24 21.5 5.5 4.1 14.7 10.3 20.5 13.8 5.8 3.5 15 8.5 20.5 11.1 5.5 2.7 14.5 6.4 20 8.4 5.5 2 14.1 4.8 19 6.1 4.9 1.4 13.9 3.4 20 4.5 6.1 1.1 17.8 2.5 26 3.1 11.2 0.9 18.9 0.9 30.5 0 8.5-0.6 20.4-2 26.5-3.1 6.1-1.1 15.9-3.4 22-5.1 6.1-1.7 14.8-4.5 19.5-6.3 4.7-1.8 12.8-5.3 18-7.8 5.2-2.5 14.2-7.4 20-10.9 5.8-3.5 15-9.7 20.5-13.8 5.5-4.1 16.3-13.7 24-21.5 7.8-7.7 17.4-18.5 21.5-24 4.1-5.5 10.3-14.7 13.8-20.5 3.5-5.8 8.5-15 11.1-20.5 2.7-5.5 6.4-14.5 8.4-20 2-5.5 4.8-14.1 6.1-19 1.4-4.9 3.4-13.9 4.5-20 1.1-6.1 2.5-18 3.1-26.5 0.9-11.6 0.9-19.3 0-30.5-0.6-8.2-2-19.9-3.1-26-1.1-6.1-3.1-15.1-4.5-20-1.3-4.9-4.1-13.5-6.1-19-2-5.5-5.7-14.5-8.4-20-2.6-5.5-7.6-14.7-11.1-20.5-3.5-5.8-9.7-15-13.8-20.5-4.1-5.5-13.7-16.3-21.5-24.1-7.7-7.7-18.7-17.5-24.5-21.8-5.8-4.3-15.7-10.9-22-14.6-6.3-3.8-16.4-9.1-22.5-11.8-6.1-2.7-15.1-6.3-20-8-4.9-1.7-13.3-4.2-18.5-5.5-5.2-1.4-13.8-3.2-19-4.1-5.2-0.9-15.4-2.1-22.5-2.6-7.1-0.5-15.5-0.9-18.5-0.8-3 0-10.4 0.5-16.5 0.9-6.1 0.5-16.2 1.8-22.5 2.9zm-65 131.1c16.2 0 34.7 0.4 41 0.9 6.3 0.5 14.9 1.9 19 3.1 4.1 1.1 10.7 3.7 14.5 5.7 4.6 2.4 9.6 6.2 14.6 11.2 5.2 5.1 8.6 9.5 10.7 14 1.8 3.6 4.1 10.1 5.2 14.5 1.4 5.4 2 11.2 2 18 0 5.5-0.7 13.2-1.5 17-0.9 3.8-3.3 10.7-5.5 15.3-3 6.1-5.8 10-18 22.2l11.1 14.8c6.2 8.1 14.2 18.6 24.4 32.3l0.5-78.3c0.5-72.1 0.6-78.6 2.3-81.5 0.9-1.8 2.9-4.2 4.5-5.2 1.5-1.1 5.2-2.5 8.2-3.2 4-0.8 15.2-1 41-0.6 27 0.4 37.2 1 42.5 2.2 3.9 0.8 10.8 3.4 15.5 5.6 6 2.9 10.1 5.8 14 9.8 3.1 3.1 7 8.3 8.7 11.6 1.7 3.3 3.9 8.9 4.9 12.5 1.2 4.5 1.7 10.3 1.7 18.5 0 10.3-0.3 13.1-5.1 27l5.2 5.5c2.9 3 6.4 7.5 7.8 10 1.5 2.5 3.6 7.6 4.8 11.5 1.4 4.5 2.4 10.8 2.7 17.5 0.4 7.6 0 12.6-1.1 18-0.9 4.1-2.7 9.8-4 12.5-1.3 2.8-4.2 7.5-6.5 10.5-2.3 3-6.3 7.2-8.9 9.3-2.6 2.1-7.4 5.2-10.7 6.9-3.3 1.7-8.5 3.9-11.5 5-3 1-9.6 2.5-14.5 3.3-6.8 1.1-18.6 1.5-48.2 1.5-25.3 0-40.3-0.4-42-1.1-1.6-0.5-4.2-2.4-8.8-6.9l-2.5 2.6c-1.4 1.5-4 3.3-5.7 4-2.7 1.1-16.5 1.4-145.8 1.4l-4.5-2.2c-3-1.5-5.3-3.7-9-10.3l0.3-87.7c0.2-85.9 0.2-87.7 2.2-90.4 1.1-1.4 3.1-3.5 4.5-4.6 1.4-1.1 4.3-2.3 6.5-2.8 2.2-0.4 17.3-0.8 33.5-0.9zm-26 177.9c94.3 0 122-0.2 122.3-0.5 0.4-0.3-6.6-10.1-15.6-21.7-9-11.7-18.5-24.2-21.1-27.8-3.3-4.7-4.7-7.4-4.6-9.7 0-1.8 0.8-4.5 1.8-5.9 0.9-1.5 4.3-4 7.5-5.5 3.1-1.6 7.5-4.7 9.7-6.9 2.2-2.2 5.1-6.2 6.5-9 1.4-2.7 3.2-7.6 4-10.7 0.8-3.2 1.5-8.7 1.5-12.3 0-3.6-0.7-9.4-1.6-13-0.8-3.6-2.7-8.7-4.2-11.4-1.5-2.7-4.9-6.9-7.7-9.3-2.7-2.5-7.5-5.6-10.5-7-3-1.4-8.4-3.2-12-3.9-4.7-1-15.9-1.4-41.2-1.4h-34.8zm165.5-0.5c68.9 0 73.9-0.2 81-1.9 4.4-1.1 10.9-3.4 14.5-5.2 4.2-2 8.2-5.1 11.3-8.6 2.7-2.9 5.6-7.5 6.7-10.3 1-2.7 2.1-7.5 2.5-10.5 0.4-3.1 0.2-8.8-0.5-13-0.6-4.1-1.9-9.3-2.9-11.5-1-2.2-3.3-5.7-5.2-7.9-1.9-2.1-5.4-4.9-7.9-6.1-2.5-1.3-5.3-3.1-6.3-4.1-0.9-1.1-2-3.7-2.3-5.9-0.5-3.5-0.1-4.7 3.5-10 2.2-3.3 4.6-8.2 5.2-11 0.6-2.7 0.9-9.3 0.7-14.5-0.3-7.5-0.9-10.7-2.9-15-1.4-3-3.7-6.8-5.1-8.5-1.4-1.6-4.7-4.2-7.4-5.7-2.7-1.5-8-3.4-11.9-4.2-5.5-1.2-14.3-1.6-40.3-1.6h-33.2z"/>
</svg>