<?xml version="1.0" encoding="UTF-8" standalone="no"?>
<!-- Uploaded to: SVG Repo, www.svgrepo.com, Generator: SVG Repo Mixer Tools -->

<svg
   fill="#000000"
   width="800px"
   height="800px"
   viewBox="0 0 32 32"
   version="1.1"
   id="svg3436"
   sodipodi:docname="redbubble.svg"
   inkscape:version="1.2 (dc2aeda, 2022-05-15)"
   xmlns:inkscape="http://www.inkscape.org/namespaces/inkscape"
   xmlns:sodipodi="http://sodipodi.sourceforge.net/DTD/sodipodi-0.dtd"
   xmlns="http://www.w3.org/2000/svg"
   xmlns:svg="http://www.w3.org/2000/svg">
  <defs
     id="defs3440" />
  <sodipodi:namedview
     id="namedview3438"
     pagecolor="#505050"
     bordercolor="#eeeeee"
     borderopacity="1"
     inkscape:showpageshadow="0"
     inkscape:pageopacity="0"
     inkscape:pagecheckerboard="0"
     inkscape:deskcolor="#505050"
     showgrid="false"
     inkscape:zoom="1.28375"
     inkscape:cx="244.20643"
     inkscape:cy="400"
     inkscape:window-width="1390"
     inkscape:window-height="1205"
     inkscape:window-x="0"
     inkscape:window-y="25"
     inkscape:window-maximized="0"
     inkscape:current-layer="svg3436" />
  <path
     d="M22.177 21.766h-4.266c-0.234 0-0.427-0.193-0.427-0.427v-10.708c0-0.234 0.193-0.427 0.427-0.427h3.953c2.969 0 3.594 1.75 3.594 3.214 0 0.849-0.224 1.521-0.672 2.016 1.089 0.448 1.672 1.458 1.672 2.922 0 2.135-1.599 3.411-4.281 3.411zM15.984 21.766h-8.859c-0.234 0-0.427-0.193-0.427-0.427v-10.708c0-0.234 0.193-0.427 0.427-0.427h4.141c2.583 0 4.125 1.391 4.125 3.724 0 1.552-0.776 2.771-2.036 3.266l2.948 3.859c0.24 0.276 0.047 0.708-0.318 0.714zM16 0c-8.839 0-16 7.161-16 16s7.161 16 16 16c8.839 0 16-7.161 16-16s-7.161-16-16-16z"
     id="path3434"
     style="fill:#ffffff;fill-opacity:1" />
</svg>
